<svg width="389" height="389" viewBox="0 0 389 389" fill="none" xmlns="http://www.w3.org/2000/svg">
<g filter="url(#filter0_d_16_4)">
<rect x="35" y="35" width="305" height="305" rx="19" fill="#ECF9FF"/>
</g>
<path d="M160.471 116.016H145.013V151.541H205.774V142.761H214.078L231.97 151.541V116.016L214.078 127.478H205.774V116.016H189.247M160.471 116.016V110H189.247V116.016M160.471 116.016H189.247" stroke="#0A4D68" stroke-width="5"/>
<path d="M171.785 152.554L163.455 186.575M144 266.031L148.877 246.111M186.125 152.554L194.455 186.575M213.91 266.031L209.033 246.111M179.403 152.554V177.622M179.403 266.031V227.31M148.877 246.111L179.403 227.31M148.877 246.111L163.455 186.575M179.403 227.31L209.033 246.111M179.403 227.31V177.622M209.033 246.111L194.455 186.575M163.455 186.575L179.403 177.622M179.403 177.622L194.455 186.575" stroke="#0A4D68" stroke-width="3"/>
<defs>
<filter id="filter0_d_16_4" x="0" y="0" width="389" height="389" filterUnits="userSpaceOnUse" color-interpolation-filters="sRGB">
<feFlood flood-opacity="0" result="BackgroundImageFix"/>
<feColorMatrix in="SourceAlpha" type="matrix" values="0 0 0 0 0 0 0 0 0 0 0 0 0 0 0 0 0 0 127 0" result="hardAlpha"/>
<feMorphology radius="7" operator="dilate" in="SourceAlpha" result="effect1_dropShadow_16_4"/>
<feOffset dx="7" dy="7"/>
<feGaussianBlur stdDeviation="17.5"/>
<feComposite in2="hardAlpha" operator="out"/>
<feColorMatrix type="matrix" values="0 0 0 0 1 0 0 0 0 1 0 0 0 0 1 0 0 0 0.55 0"/>
<feBlend mode="normal" in2="BackgroundImageFix" result="effect1_dropShadow_16_4"/>
<feBlend mode="normal" in="SourceGraphic" in2="effect1_dropShadow_16_4" result="shape"/>
</filter>
</defs>
</svg>
